<mxfile host="app.diagrams.net" modified="2023-02-06T12:03:31.994Z" agent="5.0 (Windows NT 10.0; Win64; x64) AppleWebKit/537.36 (KHTML, like Gecko) Chrome/109.0.0.0 Safari/537.36" etag="gM_ozUf6sSFOKXndXewl" version="20.8.16" type="github">
  <diagram name="Page-1" id="13e1069c-82ec-6db2-03f1-153e76fe0fe0">
    <mxGraphModel dx="1918" dy="882" grid="0" gridSize="10" guides="1" tooltips="1" connect="1" arrows="1" fold="1" page="0" pageScale="1" pageWidth="1100" pageHeight="850" background="none" math="0" shadow="0">
      <root>
        <mxCell id="0" />
        <mxCell id="1" parent="0" />
        <mxCell id="7baba1c4bc27f4b0-2" value=":ProtocolEditorService" style="shape=umlLifeline;perimeter=lifelinePerimeter;whiteSpace=wrap;html=1;container=1;collapsible=0;recursiveResize=0;outlineConnect=0;rounded=1;shadow=0;comic=0;labelBackgroundColor=none;strokeWidth=1;fontFamily=Verdana;fontSize=12;align=center;" parent="1" vertex="1">
          <mxGeometry x="390" y="80" width="150" height="1250" as="geometry" />
        </mxCell>
        <mxCell id="7baba1c4bc27f4b0-10" value="" style="html=1;points=[];perimeter=orthogonalPerimeter;rounded=0;shadow=0;comic=0;labelBackgroundColor=none;strokeWidth=1;fontFamily=Verdana;fontSize=12;align=center;" parent="7baba1c4bc27f4b0-2" vertex="1">
          <mxGeometry x="70" y="90" width="10" height="700" as="geometry" />
        </mxCell>
        <mxCell id="90dkgZwAsfMruA5nad-L-56" value="" style="html=1;points=[];perimeter=orthogonalPerimeter;fontSize=11;" parent="7baba1c4bc27f4b0-2" vertex="1">
          <mxGeometry x="75" y="197" width="10" height="40" as="geometry" />
        </mxCell>
        <mxCell id="90dkgZwAsfMruA5nad-L-57" value="Load protocol" style="edgeStyle=orthogonalEdgeStyle;html=1;align=left;spacingLeft=2;endArrow=block;rounded=0;entryX=1;entryY=0;fontSize=13;" parent="7baba1c4bc27f4b0-2" target="90dkgZwAsfMruA5nad-L-56" edge="1">
          <mxGeometry relative="1" as="geometry">
            <mxPoint x="80" y="177" as="sourcePoint" />
            <Array as="points">
              <mxPoint x="110" y="177" />
            </Array>
          </mxGeometry>
        </mxCell>
        <mxCell id="7baba1c4bc27f4b0-3" value=":ProtocolEditor" style="shape=umlLifeline;perimeter=lifelinePerimeter;whiteSpace=wrap;html=1;container=1;collapsible=0;recursiveResize=0;outlineConnect=0;rounded=1;shadow=0;comic=0;labelBackgroundColor=none;strokeWidth=1;fontFamily=Verdana;fontSize=12;align=center;" parent="1" vertex="1">
          <mxGeometry x="670" y="80" width="130" height="1120" as="geometry" />
        </mxCell>
        <mxCell id="90dkgZwAsfMruA5nad-L-35" value="" style="html=1;points=[];perimeter=orthogonalPerimeter;fontSize=11;" parent="7baba1c4bc27f4b0-3" vertex="1">
          <mxGeometry x="60" y="230" width="10" height="570" as="geometry" />
        </mxCell>
        <mxCell id="vVMsU0UwiVYUPc0pxKb--1" value="" style="html=1;points=[];perimeter=orthogonalPerimeter;fontSize=11;" parent="7baba1c4bc27f4b0-3" vertex="1">
          <mxGeometry x="65" y="517" width="10" height="40" as="geometry" />
        </mxCell>
        <mxCell id="vVMsU0UwiVYUPc0pxKb--2" value="Collection exam card detailsl" style="edgeStyle=orthogonalEdgeStyle;html=1;align=left;spacingLeft=2;endArrow=block;rounded=0;entryX=1;entryY=0;fontSize=13;" parent="7baba1c4bc27f4b0-3" target="vVMsU0UwiVYUPc0pxKb--1" edge="1">
          <mxGeometry relative="1" as="geometry">
            <mxPoint x="70" y="497" as="sourcePoint" />
            <Array as="points">
              <mxPoint x="100" y="497" />
            </Array>
          </mxGeometry>
        </mxCell>
        <mxCell id="90dkgZwAsfMruA5nad-L-102" value="" style="endArrow=classic;html=1;rounded=0;fontSize=11;" parent="7baba1c4bc27f4b0-3" edge="1">
          <mxGeometry width="50" height="50" relative="1" as="geometry">
            <mxPoint x="70" y="587" as="sourcePoint" />
            <mxPoint x="-202.5" y="587" as="targetPoint" />
            <Array as="points" />
          </mxGeometry>
        </mxCell>
        <mxCell id="7baba1c4bc27f4b0-5" value=":SeriesListViewModel" style="shape=umlLifeline;perimeter=lifelinePerimeter;whiteSpace=wrap;html=1;container=1;collapsible=0;recursiveResize=0;outlineConnect=0;rounded=1;shadow=0;comic=0;labelBackgroundColor=none;strokeWidth=1;fontFamily=Verdana;fontSize=12;align=center;fillColor=#66CC00;" parent="1" vertex="1">
          <mxGeometry x="890" y="80" width="180" height="1080" as="geometry" />
        </mxCell>
        <mxCell id="7baba1c4bc27f4b0-13" value="" style="html=1;points=[];perimeter=orthogonalPerimeter;rounded=0;shadow=0;comic=0;labelBackgroundColor=none;strokeWidth=1;fontFamily=Verdana;fontSize=12;align=center;" parent="7baba1c4bc27f4b0-5" vertex="1">
          <mxGeometry x="85" y="263" width="10" height="532" as="geometry" />
        </mxCell>
        <mxCell id="90dkgZwAsfMruA5nad-L-45" value="" style="endArrow=classic;html=1;rounded=0;fontSize=11;" parent="7baba1c4bc27f4b0-5" edge="1">
          <mxGeometry width="50" height="50" relative="1" as="geometry">
            <mxPoint x="85" y="317" as="sourcePoint" />
            <mxPoint x="-150" y="317" as="targetPoint" />
          </mxGeometry>
        </mxCell>
        <mxCell id="90dkgZwAsfMruA5nad-L-78" value="Input:&lt;br&gt;- protocol" style="text;html=1;strokeColor=none;fillColor=none;align=left;verticalAlign=middle;whiteSpace=wrap;rounded=0;" parent="7baba1c4bc27f4b0-5" vertex="1">
          <mxGeometry x="120" y="387" width="100" height="45" as="geometry" />
        </mxCell>
        <mxCell id="7baba1c4bc27f4b0-6" value=":RuleEngine" style="shape=umlLifeline;perimeter=lifelinePerimeter;whiteSpace=wrap;html=1;container=1;collapsible=0;recursiveResize=0;outlineConnect=0;rounded=1;shadow=0;comic=0;labelBackgroundColor=none;strokeWidth=1;fontFamily=Verdana;fontSize=12;align=center;fillColor=#66CC00;" parent="1" vertex="1">
          <mxGeometry x="1385" y="80" width="100" height="1220" as="geometry" />
        </mxCell>
        <mxCell id="90dkgZwAsfMruA5nad-L-52" value="" style="html=1;points=[];perimeter=orthogonalPerimeter;rounded=0;shadow=0;comic=0;labelBackgroundColor=none;strokeWidth=1;fontFamily=Verdana;fontSize=12;align=center;" parent="7baba1c4bc27f4b0-6" vertex="1">
          <mxGeometry x="45" y="70" width="10" height="720" as="geometry" />
        </mxCell>
        <mxCell id="7baba1c4bc27f4b0-7" value=":ParameterPanelVMs" style="shape=umlLifeline;perimeter=lifelinePerimeter;whiteSpace=wrap;html=1;container=1;collapsible=0;recursiveResize=0;outlineConnect=0;rounded=1;shadow=0;comic=0;labelBackgroundColor=none;strokeWidth=1;fontFamily=Verdana;fontSize=12;align=center;fillColor=#66CC00;" parent="1" vertex="1">
          <mxGeometry x="1110" y="80" width="150" height="1120" as="geometry" />
        </mxCell>
        <mxCell id="7baba1c4bc27f4b0-37" value="" style="html=1;points=[];perimeter=orthogonalPerimeter;rounded=0;shadow=0;comic=0;labelBackgroundColor=none;strokeWidth=1;fontFamily=Verdana;fontSize=12;align=center;" parent="7baba1c4bc27f4b0-7" vertex="1">
          <mxGeometry x="70" y="376.75" width="10" height="350.25" as="geometry" />
        </mxCell>
        <mxCell id="7baba1c4bc27f4b0-8" value=":ExamCardAccess" style="shape=umlLifeline;perimeter=lifelinePerimeter;whiteSpace=wrap;html=1;container=1;collapsible=0;recursiveResize=0;outlineConnect=0;rounded=1;shadow=0;comic=0;labelBackgroundColor=none;strokeWidth=1;fontFamily=Verdana;fontSize=12;align=center;" parent="1" vertex="1">
          <mxGeometry x="112" y="80" width="180" height="1250" as="geometry" />
        </mxCell>
        <mxCell id="7baba1c4bc27f4b0-9" value="" style="html=1;points=[];perimeter=orthogonalPerimeter;rounded=0;shadow=0;comic=0;labelBackgroundColor=none;strokeWidth=1;fontFamily=Verdana;fontSize=12;align=center;" parent="7baba1c4bc27f4b0-8" vertex="1">
          <mxGeometry x="86" y="70" width="10" height="730" as="geometry" />
        </mxCell>
        <mxCell id="90dkgZwAsfMruA5nad-L-2" value="SPM" style="shape=umlActor;verticalLabelPosition=bottom;verticalAlign=top;html=1;outlineConnect=0;" parent="1" vertex="1">
          <mxGeometry x="73" y="130" width="30" height="60" as="geometry" />
        </mxCell>
        <mxCell id="90dkgZwAsfMruA5nad-L-12" value="" style="endArrow=classic;html=1;rounded=0;" parent="1" edge="1">
          <mxGeometry width="50" height="50" relative="1" as="geometry">
            <mxPoint x="200" y="223" as="sourcePoint" />
            <mxPoint x="464.5" y="223.14999999999986" as="targetPoint" />
          </mxGeometry>
        </mxCell>
        <mxCell id="90dkgZwAsfMruA5nad-L-13" value="Start session" style="edgeLabel;html=1;align=center;verticalAlign=middle;resizable=0;points=[];fontSize=13;" parent="90dkgZwAsfMruA5nad-L-12" vertex="1" connectable="0">
          <mxGeometry x="-0.3565" y="-1" relative="1" as="geometry">
            <mxPoint x="39" y="-16" as="offset" />
          </mxGeometry>
        </mxCell>
        <mxCell id="90dkgZwAsfMruA5nad-L-18" value="&lt;span style=&quot;font-size: 11px; background-color: rgb(255, 255, 255);&quot;&gt;Input:&lt;br&gt;- string sessionId&lt;/span&gt;&lt;br style=&quot;border-color: var(--border-color); font-size: 11px;&quot;&gt;&lt;div style=&quot;&quot;&gt;&lt;span style=&quot;background-color: rgb(255, 255, 255); font-size: 11px;&quot;&gt;- ExamCardData examCardData&lt;/span&gt;&lt;/div&gt;&lt;span style=&quot;font-size: 11px; background-color: rgb(255, 255, 255);&quot;&gt;- string culture&lt;/span&gt;" style="text;html=1;strokeColor=none;fillColor=none;align=left;verticalAlign=middle;whiteSpace=wrap;rounded=0;" parent="1" vertex="1">
          <mxGeometry x="251" y="233" width="176" height="45" as="geometry" />
        </mxCell>
        <mxCell id="90dkgZwAsfMruA5nad-L-33" value="" style="endArrow=classic;html=1;rounded=0;startArrow=none;" parent="1" edge="1">
          <mxGeometry width="50" height="50" relative="1" as="geometry">
            <mxPoint x="470" y="317" as="sourcePoint" />
            <mxPoint x="735" y="317" as="targetPoint" />
            <Array as="points" />
          </mxGeometry>
        </mxCell>
        <mxCell id="90dkgZwAsfMruA5nad-L-59" value="Create exam card editor" style="edgeLabel;html=1;align=center;verticalAlign=middle;resizable=0;points=[];fontSize=13;" parent="90dkgZwAsfMruA5nad-L-33" vertex="1" connectable="0">
          <mxGeometry x="0.7741" y="-2" relative="1" as="geometry">
            <mxPoint x="-115" y="-12" as="offset" />
          </mxGeometry>
        </mxCell>
        <mxCell id="90dkgZwAsfMruA5nad-L-50" value="" style="endArrow=classic;html=1;rounded=0;fontSize=11;startArrow=none;" parent="1" edge="1">
          <mxGeometry width="50" height="50" relative="1" as="geometry">
            <mxPoint x="745" y="468" as="sourcePoint" />
            <mxPoint x="1180" y="468" as="targetPoint" />
            <Array as="points">
              <mxPoint x="920" y="468" />
            </Array>
          </mxGeometry>
        </mxCell>
        <mxCell id="90dkgZwAsfMruA5nad-L-60" value="Input:&lt;br&gt;- protocol" style="text;html=1;strokeColor=none;fillColor=none;align=left;verticalAlign=middle;whiteSpace=wrap;rounded=0;" parent="1" vertex="1">
          <mxGeometry x="560" y="317" width="100" height="45" as="geometry" />
        </mxCell>
        <mxCell id="90dkgZwAsfMruA5nad-L-61" value="Input:&lt;br&gt;- protocol" style="text;html=1;strokeColor=none;fillColor=none;align=left;verticalAlign=middle;whiteSpace=wrap;rounded=0;" parent="1" vertex="1">
          <mxGeometry x="790" y="337" width="100" height="45" as="geometry" />
        </mxCell>
        <mxCell id="90dkgZwAsfMruA5nad-L-62" value="" style="endArrow=classic;html=1;rounded=0;fontSize=11;" parent="1" edge="1">
          <mxGeometry width="50" height="50" relative="1" as="geometry">
            <mxPoint x="1180" y="539.0000000000002" as="sourcePoint" />
            <mxPoint x="739.8103448275863" y="539" as="targetPoint" />
            <Array as="points">
              <mxPoint x="1180" y="539" />
              <mxPoint x="960" y="539" />
            </Array>
          </mxGeometry>
        </mxCell>
        <mxCell id="90dkgZwAsfMruA5nad-L-70" value="" style="endArrow=classic;html=1;rounded=0;fontSize=11;startArrow=none;" parent="1" edge="1" target="90dkgZwAsfMruA5nad-L-52">
          <mxGeometry width="50" height="50" relative="1" as="geometry">
            <mxPoint x="1190" y="504" as="sourcePoint" />
            <mxPoint x="1405" y="504" as="targetPoint" />
            <Array as="points">
              <mxPoint x="1290" y="504" />
            </Array>
          </mxGeometry>
        </mxCell>
        <mxCell id="90dkgZwAsfMruA5nad-L-72" value="Reevaluate protocol agaist rule engine" style="edgeLabel;html=1;align=center;verticalAlign=middle;resizable=0;points=[];fontSize=13;" parent="90dkgZwAsfMruA5nad-L-70" vertex="1" connectable="0">
          <mxGeometry x="-0.0863" y="1" relative="1" as="geometry">
            <mxPoint x="2" y="-15" as="offset" />
          </mxGeometry>
        </mxCell>
        <mxCell id="90dkgZwAsfMruA5nad-L-73" value="" style="endArrow=classic;html=1;rounded=0;fontSize=11;" parent="1" edge="1" source="90dkgZwAsfMruA5nad-L-52">
          <mxGeometry width="50" height="50" relative="1" as="geometry">
            <mxPoint x="1401.0000000000002" y="520" as="sourcePoint" />
            <mxPoint x="1190.9966666666664" y="520" as="targetPoint" />
            <Array as="points" />
          </mxGeometry>
        </mxCell>
        <mxCell id="90dkgZwAsfMruA5nad-L-99" value="" style="endArrow=classic;html=1;rounded=0;exitX=1;exitY=0.3333333333333333;exitDx=0;exitDy=0;exitPerimeter=0;" parent="1" source="90dkgZwAsfMruA5nad-L-2" edge="1">
          <mxGeometry width="50" height="50" relative="1" as="geometry">
            <mxPoint x="113" y="160" as="sourcePoint" />
            <mxPoint x="202.50000000000045" y="150" as="targetPoint" />
          </mxGeometry>
        </mxCell>
        <mxCell id="90dkgZwAsfMruA5nad-L-104" value="" style="endArrow=classic;html=1;rounded=0;fontSize=11;" parent="1" edge="1" target="7baba1c4bc27f4b0-8">
          <mxGeometry width="50" height="50" relative="1" as="geometry">
            <mxPoint x="462.5" y="718" as="sourcePoint" />
            <mxPoint x="135" y="718" as="targetPoint" />
            <Array as="points" />
          </mxGeometry>
        </mxCell>
        <mxCell id="90dkgZwAsfMruA5nad-L-105" value="Output: &lt;br&gt;- ExamCardDetails" style="edgeLabel;html=1;align=left;verticalAlign=middle;resizable=0;points=[];" parent="1" vertex="1" connectable="0">
          <mxGeometry x="272.9988235294117" y="737" as="geometry" />
        </mxCell>
        <mxCell id="vVMsU0UwiVYUPc0pxKb--3" value="Output: &lt;br&gt;- ExamCardDetails" style="edgeLabel;html=1;align=left;verticalAlign=middle;resizable=0;points=[];" parent="1" vertex="1" connectable="0">
          <mxGeometry x="529.9988235294118" y="687" as="geometry" />
        </mxCell>
        <mxCell id="90dkgZwAsfMruA5nad-L-43" value="" style="endArrow=classic;html=1;rounded=0;fontSize=11;entryX=0.5;entryY=0.042;entryDx=0;entryDy=0;entryPerimeter=0;exitX=1.047;exitY=0.057;exitDx=0;exitDy=0;exitPerimeter=0;" parent="1" edge="1">
          <mxGeometry width="50" height="50" relative="1" as="geometry">
            <mxPoint x="740.4699999999998" y="337.21000000000004" as="sourcePoint" />
            <mxPoint x="980" y="338.6300000000001" as="targetPoint" />
          </mxGeometry>
        </mxCell>
        <mxCell id="90dkgZwAsfMruA5nad-L-44" value="Create&amp;nbsp; SeriesListViewModel" style="edgeLabel;html=1;align=center;verticalAlign=middle;resizable=0;points=[];fontSize=13;" parent="90dkgZwAsfMruA5nad-L-43" vertex="1" connectable="0">
          <mxGeometry x="0.2861" y="2" relative="1" as="geometry">
            <mxPoint x="-31" y="-10" as="offset" />
          </mxGeometry>
        </mxCell>
        <mxCell id="90dkgZwAsfMruA5nad-L-63" value=":Create ParameterPanelVMs" style="edgeLabel;html=1;align=center;verticalAlign=middle;resizable=0;points=[];fontSize=13;" parent="90dkgZwAsfMruA5nad-L-43" vertex="1" connectable="0">
          <mxGeometry x="0.2861" y="2" relative="1" as="geometry">
            <mxPoint x="169" y="120" as="offset" />
          </mxGeometry>
        </mxCell>
      </root>
    </mxGraphModel>
  </diagram>
</mxfile>
